Coordinates
version=1
nRows=37
nColumns=38
inDegrees=no

Units are S.I. units (second, meters, Newtons, ...)
If the header above contains a line with 'inDegrees', this indicates whether rotational values are in degrees (yes) or radians (no).

endheader
time	pelvis_tilt	pelvis_list	pelvis_rotation	pelvis_tx	pelvis_ty	pelvis_tz	hip_flexion_r	hip_adduction_r	hip_rotation_r	knee_angle_r	ankle_angle_r	subtalar_angle_r	mtp_angle_r	hip_flexion_l	hip_adduction_l	hip_rotation_l	knee_angle_l	ankle_angle_l	subtalar_angle_l	mtp_angle_l	lumbar_extension	lumbar_bending	lumbar_rotation	arm_flex_r	arm_add_r	arm_rot_r	elbow_flex_r	pro_sup_r	wrist_flex_r	wrist_dev_r	arm_flex_l	arm_add_l	arm_rot_l	elbow_flex_l	pro_sup_l	wrist_flex_l	wrist_dev_l
5.01	1.11379	1.50832	-2.60558	0.718607	-0.475355	0.931981	-0.00684945	-0.0831896	-0.428926	0.204503	0.109945	0	0	0.0109713	0.00971022	-0.0573604	0.0837627	-0.00990517	0	0	-0.154323	0.0011581	-0.0694314	0.0179056	-0.300729	0.343804	0.848653	1.5708	0	0	-0.11598	-0.299686	0.342594	0.652954	1.45863	0	0
5.02	1.11025	1.50689	-2.59937	0.719174	-0.476371	0.932104	-0.00902368	-0.0847646	-0.431224	0.205696	0.111082	0	0	0.00249352	0.0124292	-0.0503906	0.0705258	-0.0168279	0	0	-0.153855	-0.000685569	-0.0729213	0.0182452	-0.297679	0.351511	0.833993	1.5708	0	0	-0.109127	-0.303032	0.350881	0.648187	1.45739	0	0
5.03	1.112	1.50705	-2.59712	0.719924	-0.477206	0.932073	-0.00977531	-0.0852652	-0.434974	0.20752	0.112161	0	0	-0.0030057	0.0137338	-0.0450497	0.0602286	-0.0218856	0	0	-0.152526	-0.0010733	-0.0776983	0.0189899	-0.29513	0.360801	0.81856	1.5708	0	0	-0.102187	-0.306192	0.358619	0.644244	1.45684	0	0
5.04	1.10633	1.50767	-2.58928	0.720609	-0.478072	0.932047	-0.0102607	-0.08513	-0.436259	0.20951	0.112958	0	0	-0.00926918	0.0143623	-0.0391666	0.0492727	-0.027004	0	0	-0.151199	-0.000547821	-0.0800739	0.0191932	-0.293452	0.370303	0.803002	1.5708	0	0	-0.094544	-0.308528	0.36668	0.639632	1.45735	0	0
5.05	1.09061	1.50777	-2.57295	0.721152	-0.479054	0.932052	-0.0116683	-0.084932	-0.435525	0.210968	0.113545	0	0	-0.0178901	0.01504	-0.0321049	0.0361187	-0.0326182	0	0	-0.150368	-0.000184681	-0.0804259	0.018886	-0.29216	0.380428	0.787039	1.5708	0	0	-0.0866099	-0.310805	0.375017	0.635155	1.45918	0	0
5.06	1.06355	1.50606	-2.54366	0.72154	-0.480084	0.932116	-0.0156247	-0.0854013	-0.437241	0.211544	0.114714	0	0	-0.0288442	0.0162426	-0.0226206	0.0217136	-0.038699	0	0	-0.154246	0.00417306	-0.0717797	0.00582155	-0.292181	0.367249	0.786842	1.5708	0	0	-0.0682177	-0.311314	0.392523	0.623557	1.46283	0	0
5.07	1.05801	1.50683	-2.53434	0.722352	-0.481075	0.93191	-0.0168589	-0.0850351	-0.44084	0.212784	0.115877	0	0	-0.0357841	0.016105	-0.0155654	0.00972538	-0.04289	0	0	-0.152367	0.00479023	-0.0757322	0.00626728	-0.290619	0.379687	0.768132	1.5708	0	0	-0.0618269	-0.313908	0.396873	0.621859	1.4662	0	0
5.08	1.05099	1.50745	-2.52569	0.723088	-0.481908	0.931715	-0.0171398	-0.0851577	-0.44179	0.215198	0.117351	0	0	-0.0428784	0.0160755	-0.011277	0	-0.0467567	0	0	-0.151115	0.00538873	-0.0774571	0.00727258	-0.289761	0.393004	0.749194	1.5708	0	0	-0.0549359	-0.315759	0.399859	0.620377	1.47135	0	0
5.09	1.03855	1.50714	-2.51137	0.723747	-0.482827	0.931564	-0.0185939	-0.0857831	-0.443469	0.217433	0.119379	0	0	-0.0498935	0.0163068	-0.00999997	0	-0.0487553	0	0	-0.150603	0.00512702	-0.0792702	0.00811586	-0.288191	0.406748	0.728868	1.5708	0	0	-0.0484548	-0.318321	0.40362	0.620254	1.47233	0	0
5.1	1.02212	1.50685	-2.49348	0.724384	-0.483699	0.931409	-0.0198629	-0.0864048	-0.444841	0.220265	0.121457	0	0	-0.0573685	0.0163101	-0.0088112	0	-0.050634	0	0	-0.150326	0.00504909	-0.0805358	0.0085309	-0.286466	0.418389	0.709232	1.5708	0	0	-0.0419503	-0.320889	0.406819	0.620895	1.47311	0	0
5.11	0.965932	1.50592	-2.43776	0.725132	-0.484266	0.931628	-0.0250507	-0.0906097	-0.454177	0.222082	0.127506	0	0	-0.053939	0.0155866	-0.00848902	0	-0.0500441	0	0	-0.153182	0.00652132	-0.0805414	0.0109459	-0.28486	0.432754	0.687376	1.5708	0	0	-0.0356848	-0.322858	0.408991	0.622667	1.4742	0	0
5.12	0.930961	1.50478	-2.40201	0.725724	-0.485036	0.931679	-0.0276211	-0.0910983	-0.455603	0.225133	0.129397	0	0	-0.0587933	0.0150657	-0.00701242	0	-0.0511345	0	0	-0.154504	0.00661723	-0.0807944	0.012471	-0.282988	0.446743	0.664686	1.5708	0	0	-0.0293978	-0.32517	0.410246	0.624804	1.4758	0	0
5.13	0.898949	1.50375	-2.36736	0.726483	-0.485731	0.931682	-0.0308375	-0.0911397	-0.458116	0.226781	0.130782	0	0	-0.0629474	0.0144895	-0.00554649	0	-0.0515629	0	0	-0.155748	0.00682112	-0.0830183	0.0143014	-0.280635	0.460353	0.641821	1.5708	0	0	-0.0233249	-0.327831	0.410886	0.627564	1.47732	0	0
5.14	0.87199	1.50519	-2.33861	0.727589	-0.486206	0.931486	-0.0311189	-0.0902123	-0.458988	0.229275	0.131677	0	0	-0.0647288	0.0130204	-0.00715692	0	-0.0508466	0	0	-0.152087	0.00314114	-0.0957239	0.0278849	-0.276002	0.496366	0.605332	1.5708	0	0	-0.0287256	-0.333187	0.401336	0.63903	1.47624	0	0
5.15	0.850701	1.50519	-2.31519	0.728322	-0.486644	0.93138	-0.0321521	-0.0901092	-0.460317	0.23162	0.132942	0	0	-0.067105	0.0123633	-0.00706557	0	-0.051013	0	0	-0.15243	0.00376479	-0.0979864	0.0309015	-0.274585	0.516601	0.583008	1.5708	0	0	-0.0236495	-0.33578	0.399525	0.644055	1.47552	0	0
5.16	0.829679	1.50502	-2.29368	0.728967	-0.48707	0.931317	-0.0325929	-0.0903524	-0.460133	0.23471	0.134318	0	0	-0.0697377	0.0119153	-0.00731627	0	-0.0514444	0	0	-0.152975	0.00421638	-0.0980372	0.0324268	-0.273022	0.532061	0.562977	1.5708	0	0	-0.0180112	-0.337765	0.397935	0.648415	1.47465	0	0
5.17	0.81823	1.50328	-2.27883	0.729282	-0.487658	0.931332	-0.0349915	-0.0913026	-0.463511	0.236858	0.136378	0	0	-0.072867	0.01222	-0.00435233	0	-0.0524926	0	0	-0.15702	0.00866302	-0.0895948	0.0221533	-0.273377	0.524819	0.556289	1.5708	0	0	-0.00168758	-0.337102	0.405045	0.644968	1.47541	0	0
5.18	0.801058	1.50249	-2.25921	0.729929	-0.488264	0.93132	-0.0368387	-0.0916489	-0.46552	0.239088	0.138012	0	0	-0.0757638	0.0120466	-0.00263401	0	-0.0528751	0	0	-0.157309	0.00826886	-0.0910524	0.0213753	-0.270602	0.533823	0.538217	1.5708	0	0	0.00356299	-0.339622	0.403475	0.649479	1.47546	0	0
5.19	0.790823	1.50217	-2.24777	0.730492	-0.488753	0.931262	-0.0376457	-0.0920292	-0.466012	0.24094	0.139137	0	0	-0.077785	0.0120759	-0.00213845	0	-0.0528462	0	0	-0.157085	0.0078187	-0.0919102	0.0214793	-0.268451	0.546233	0.520453	1.5708	0	0	0.00815152	-0.342027	0.400538	0.655107	1.47536	0	0
5.2	0.784461	1.50243	-2.24039	0.731002	-0.489225	0.931165	-0.0379118	-0.0922107	-0.466877	0.242404	0.139946	0	0	-0.0791498	0.0119061	-0.00140522	0	-0.0528503	0	0	-0.156079	0.00749849	-0.0926161	0.0209725	-0.26666	0.557825	0.50529	1.5708	0	0	0.0123548	-0.344158	0.397271	0.660477	1.47467	0	0
5.21	0.777983	1.50234	-2.23392	0.731445	-0.489741	0.931104	-0.0383172	-0.0926583	-0.467003	0.24383	0.140713	0	0	-0.0809704	0.011933	-0.000515229	0	-0.053292	0	0	-0.155345	0.00679921	-0.0925203	0.0198926	-0.265208	0.567619	0.492895	1.5708	0	0	0.0160078	-0.34608	0.39344	0.665844	1.47243	0	0
5.22	0.769704	1.50104	-2.22856	0.731657	-0.49014	0.931141	-0.0386565	-0.0941457	-0.463813	0.246298	0.14183	0	0	-0.0839807	0.012886	-0.00162556	0	-0.0537866	0	0	-0.156156	0.005191	-0.0898029	0.0187438	-0.264598	0.575793	0.483587	1.5708	0	0	0.0198909	-0.347866	0.38981	0.671577	1.46939	0	0
5.23	0.765606	1.50136	-2.22463	0.732127	-0.490521	0.93107	-0.0383581	-0.0946064	-0.463671	0.247888	0.142557	0	0	-0.0848463	0.0129876	-0.00214592	0	-0.0532885	0	0	-0.15518	0.00468992	-0.0894736	0.0165157	-0.264326	0.581747	0.476809	1.5708	0	0	0.0237419	-0.349649	0.386906	0.677065	1.466	0	0
5.24	0.765764	1.50331	-2.2211	0.73289	-0.490965	0.930853	-0.0380584	-0.0938365	-0.468187	0.24799	0.143033	0	0	-0.0836424	0.0120405	-0.000632209	0	-0.0521035	0	0	-0.152162	0.00518794	-0.0929005	0.0132006	-0.263913	0.586463	0.471838	1.5708	0	0	0.0269493	-0.351767	0.384413	0.682398	1.46254	0	0
5.25	0.764272	1.50422	-2.21846	0.733355	-0.491303	0.930714	-0.0377657	-0.0937742	-0.469879	0.248698	0.143629	0	0	-0.0833764	0.0117014	-0.000175256	0	-0.0512382	0	0	-0.150527	0.00478177	-0.094078	0.0100003	-0.26403	0.589603	0.46911	1.5708	0	0	0.0302882	-0.353825	0.382185	0.688136	1.45947	0	0
5.26	0.763634	1.5044	-2.21865	0.733658	-0.491556	0.930633	-0.0374561	-0.0942732	-0.469528	0.249537	0.144083	0	0	-0.0836355	0.011927	-0.000608239	0	-0.0504685	0	0	-0.149847	0.00371234	-0.0934135	0.00683954	-0.26483	0.592431	0.468216	1.5708	0	0	0.0338289	-0.355617	0.38002	0.693864	1.45649	0	0
5.27	0.763837	1.50461	-2.21989	0.733963	-0.491809	0.930569	-0.0373285	-0.0946546	-0.469117	0.249747	0.144282	0	0	-0.0838423	0.0122	-0.00095408	0	-0.0498845	0	0	-0.149106	0.00265989	-0.092649	0.00337481	-0.266144	0.594779	0.469044	1.5708	0	0	0.037108	-0.357168	0.377558	0.69908	1.4537	0	0
5.28	0.762012	1.50419	-2.2191	0.734212	-0.492182	0.93058	-0.0384504	-0.0950566	-0.468902	0.249023	0.144346	0	0	-0.0848535	0.0126689	-0.000766321	0	-0.0491813	0	0	-0.148735	0.0011847	-0.092072	-0.000698367	-0.267218	0.591388	0.473245	1.5708	0	0	0.0397867	-0.358865	0.375013	0.704151	1.45154	0	0
5.29	0.754372	1.50303	-2.21372	0.73437	-0.49262	0.930692	-0.0404739	-0.0954928	-0.467232	0.24786	0.144102	0	0	-0.0869454	0.013329	-0.000825847	0	-0.0484134	0	0	-0.149187	-0.000527253	-0.0903401	-0.00474976	-0.268667	0.58666	0.47865	1.5708	0	0	0.0423203	-0.360345	0.372828	0.70886	1.44982	0	0
5.3	0.747393	1.50242	-2.20889	0.734568	-0.492894	0.930771	-0.0417892	-0.0956657	-0.46549	0.246746	0.143562	0	0	-0.0882137	0.0138049	-0.00171354	0	-0.0477269	0	0	-0.149282	-0.00179856	-0.0888868	-0.00811363	-0.270481	0.582812	0.484285	1.5708	0	0	0.0449074	-0.361527	0.370896	0.713118	1.44842	0	0
5.31	0.745549	1.50229	-2.20835	0.734775	-0.493116	0.930791	-0.0427593	-0.0956626	-0.464625	0.245089	0.143202	0	0	-0.0885928	0.0142492	-0.00257218	0	-0.0467602	0	0	-0.148941	-0.00293485	-0.0882143	-0.0112978	-0.272149	0.578736	0.490393	1.5708	0	0	0.0473564	-0.362827	0.36921	0.717271	1.44821	0	0
5.32	0.746847	1.50257	-2.2104	0.735022	-0.49326	0.930767	-0.0431978	-0.0955767	-0.464349	0.24352	0.142857	0	0	-0.0882362	0.0146666	-0.00360221	0	-0.0456754	0	0	-0.148241	-0.00389006	-0.0883292	-0.0139167	-0.273736	0.574532	0.497041	1.5708	0	0	0.049434	-0.364104	0.367234	0.721296	1.44903	0	0
5.33	0.751966	1.50369	-2.21621	0.735348	-0.493311	0.930685	-0.0424348	-0.0952965	-0.463783	0.242355	0.142299	0	0	-0.0868057	0.0149407	-0.00532915	0	-0.0444056	0	0	-0.14683	-0.0043421	-0.0886588	-0.015869	-0.2758	0.571117	0.50439	1.5708	0	0	0.0511653	-0.364856	0.365007	0.724818	1.44976	0	0
5.34	0.753739	1.50406	-2.21909	0.735564	-0.493578	0.930676	-0.0429709	-0.0951001	-0.463507	0.240531	0.141561	0	0	-0.0866737	0.0152857	-0.00591943	0	-0.0435924	0	0	-0.145622	-0.00524211	-0.0886726	-0.0180087	-0.277525	0.567671	0.511207	1.5708	0	0	0.0520956	-0.365552	0.362635	0.727908	1.45095	0	0
5.35	0.749063	1.50325	-2.21594	0.735633	-0.494007	0.93076	-0.0450277	-0.0951955	-0.463499	0.238533	0.141057	0	0	-0.0882546	0.0157319	-0.00506196	0	-0.0433561	0	0	-0.145335	-0.00679937	-0.0883966	-0.0197953	-0.278784	0.564364	0.517478	1.5708	0	0	0.0523599	-0.366581	0.360507	0.731031	1.45305	0	0
5.36	0.746518	1.50269	-2.21527	0.73572	-0.494261	0.930794	-0.0461231	-0.0954984	-0.462706	0.237346	0.14093	0	0	-0.0892542	0.0163156	-0.00547996	0	-0.0428379	0	0	-0.145155	-0.00816809	-0.0880136	-0.0205132	-0.280286	0.561786	0.523889	1.5708	0	0	0.0525041	-0.367365	0.358363	0.734014	1.4561	0	0
5.37	0.746154	1.50274	-2.21804	0.735859	-0.494295	0.930785	-0.0454815	-0.0959914	-0.45936	0.237346	0.140933	0	0	-0.0893888	0.0170457	-0.00808393	0	-0.0419402	0	0	-0.14488	-0.00897134	-0.0866479	-0.020021	-0.282493	0.559951	0.530687	1.5708	0	0	0.0527388	-0.367359	0.356071	0.736281	1.46012	0	0
